<?xml version="1.0" encoding="UTF-8" standalone="no"?>
<!-- Created with Inkscape (http://www.inkscape.org/) -->

<svg
   width="800mm"
   height="250mm"
   viewBox="0 0 800 250"
   version="1.1"
   id="svg5"
   xml:space="preserve"
   inkscape:version="1.4 (86a8ad7, 2024-10-11)"
   sodipodi:docname="rabbit-rfid-logo.svg"
   xmlns:inkscape="http://www.inkscape.org/namespaces/inkscape"
   xmlns:sodipodi="http://sodipodi.sourceforge.net/DTD/sodipodi-0.dtd"
   xmlns="http://www.w3.org/2000/svg"
   xmlns:svg="http://www.w3.org/2000/svg"
   xmlns:rdf="http://www.w3.org/1999/02/22-rdf-syntax-ns#"
   xmlns:cc="http://creativecommons.org/ns#"
   xmlns:dc="http://purl.org/dc/elements/1.1/"><sodipodi:namedview
     id="namedview7"
     pagecolor="#ffffff"
     bordercolor="#000000"
     borderopacity="0.25"
     inkscape:showpageshadow="2"
     inkscape:pageopacity="0.0"
     inkscape:pagecheckerboard="0"
     inkscape:deskcolor="#d1d1d1"
     inkscape:document-units="mm"
     showgrid="false"
     inkscape:zoom="0.22158854"
     inkscape:cx="1683.3"
     inkscape:cy="435.49184"
     inkscape:window-width="1920"
     inkscape:window-height="1017"
     inkscape:window-x="-8"
     inkscape:window-y="-8"
     inkscape:window-maximized="1"
     inkscape:current-layer="layer1" /><defs
     id="defs2"><filter
       inkscape:collect="always"
       style="color-interpolation-filters:sRGB"
       id="filter1347"
       x="-0.20043663"
       y="-0.20043663"
       width="1.4008733"
       height="1.4008733"><feGaussianBlur
         inkscape:collect="always"
         stdDeviation="1.1183718"
         id="feGaussianBlur1349" /></filter><filter
       inkscape:collect="always"
       style="color-interpolation-filters:sRGB"
       id="filter1347-2"
       x="-0.20043663"
       y="-0.20043663"
       width="1.4008733"
       height="1.4008733"><feGaussianBlur
         inkscape:collect="always"
         stdDeviation="1.1183718"
         id="feGaussianBlur1349-8" /></filter><filter
       inkscape:collect="always"
       style="color-interpolation-filters:sRGB"
       id="filter1347-2-6"
       x="-0.20043663"
       y="-0.20043663"
       width="1.4008733"
       height="1.4008733"><feGaussianBlur
         inkscape:collect="always"
         stdDeviation="1.1183718"
         id="feGaussianBlur1349-8-5" /></filter></defs><g
     inkscape:label="Calque 1"
     inkscape:groupmode="layer"
     id="layer1"><g
       id="g742"
       inkscape:label="logo"
       transform="matrix(1.1397179,0,0,1.1397179,-5.5829465,-18.492321)"
       style="stroke:#10aaea;stroke-opacity:1"><path
         style="stroke:#ea7710;stroke-opacity:1;fill:#000000;fill-opacity:0;stroke-width:20;stroke-dasharray:none"
         d="m 137.39955,138.43333 v -16.10436 h 11.37195 v 22.62536 h -22.37412 v -22.62536 h 22.37412 v 10.81269 l 28.10985,-0.42215 V 94.479956 H 97.235098 V 173.69713 H 178.22112 L 204.9912,150.22412 V 66.630942 H 68.072816 V 202.43992 H 192.54462 l 40.55643,-36.17985 V 38.781929 H 38.910534 V 231.18272 H 233.10105 v -23.02671 l -27.86802,25.55963"
         id="path16"
         sodipodi:nodetypes="ccccccccccccccccccccccccc"
         transform="matrix(0.87741011,0,0,0.87741011,4.8985337,16.225349)" /><path
         style="font-variation-settings:'wght' 400;fill:#ffffff;fill-opacity:1;stroke:#ea7710;stroke-width:0.21496547;stroke-opacity:1;stroke-dasharray:none"
         d="m 94.945697,124.19326 c 0,0 1.548423,-37.568106 3.258381,-56.284653 0.356891,-3.906392 0.824687,-9.069846 1.525285,-11.149281 0.700587,-2.079435 2.331057,-4.447208 3.591497,-5.463406 0.68059,-0.548709 1.79371,-0.709929 2.93258,-0.18931 1.13887,0.520618 2.86354,3.193731 3.82014,5.430247 1.5343,3.587146 1.5037,7.480032 1.77976,11.37175 0.95239,13.426454 -0.13032,39.967153 -0.13032,39.967153 0,0 4.80776,-2.39216 12.36611,-2.48113 7.41708,-0.0873 12.34702,2.69744 12.34702,2.69744 0,0 -0.01,-29.975224 1.14016,-44.021053 0.21897,-2.67429 0.40977,-5.585664 1.50167,-8.036691 0.82986,-1.862815 1.92259,-3.748247 3.72635,-4.699658 0.75501,-0.398238 2.06243,-0.334813 2.75306,0.166852 1.42277,1.03349 2.60971,2.946194 3.42045,5.255829 0.4905,1.397332 0.93848,4.689048 1.14016,6.924346 1.82789,20.259396 2.89209,60.956495 2.89209,60.956495 0,0 2.04488,5.03948 2.66963,7.67518 2.49274,10.51643 2.55525,21.69146 4.38422,32.34341 2.26438,13.18776 6.44385,25.80219 8.18528,39.06913 0.28025,2.13509 0.4336,4.62857 0.0977,6.76622 -0.10601,0.6747 -1.44316,2.10507 -2.63705,2.7213 -7.63393,3.94026 -17.77609,6.1735 -27.29736,7.37405 -10.04342,1.26639 -20.53557,1.20621 -30.56365,-0.17639 -6.75002,-0.93064 -19.77794,-3.51305 -26.323248,-7.45946 -1.394968,-0.84108 -2.722038,-2.01705 -3.265127,-3.55276 -0.595004,-1.68251 0.09886,-4.34482 0.43819,-6.58866 2.175067,-14.38293 6.680521,-27.79707 9.376276,-42.09156 1.787195,-9.47677 3.149348,-20.92006 4.646018,-29.29515 0.443593,-2.48226 2.224688,-7.23024 2.224688,-7.23024 z"
         id="path403"
         sodipodi:nodetypes="cszszsscscsssssscssssssssssssc" /><path
         style="font-variation-settings:'wght' 400;fill:#000000;fill-opacity:1;stroke:#10aaea;stroke-width:0.215;stroke-opacity:1"
         d="m 113.77396,137.61638 c -1.78699,-0.069 -2.47337,-3.04947 -2.51694,-4.83727 -0.0461,-1.89119 0.50944,-5.09931 2.39896,-5.1912 2.00952,-0.0977 2.70319,3.25817 2.67426,5.26986 -0.0263,1.83232 -0.72513,4.82934 -2.55628,4.75861 z"
         id="path1062"
         sodipodi:nodetypes="sssss" /><path
         style="font-variation-settings:'wght' 400;fill:#000000;fill-opacity:1;stroke:#10aaea;stroke-width:0.215;stroke-opacity:1"
         d="m 136.80099,137.61638 c -1.78699,-0.069 -2.47338,-3.04947 -2.51695,-4.83727 -0.0461,-1.8912 0.50944,-5.09932 2.39897,-5.19121 2.00952,-0.0977 2.70319,3.25818 2.67426,5.26987 -0.0264,1.83232 -0.72513,4.82934 -2.55628,4.75861 z"
         id="path1062-4"
         sodipodi:nodetypes="sssss" /><path
         style="font-variation-settings:'wght' 400;fill:#000000;fill-opacity:1;stroke:#10aaea;stroke-width:0.215;stroke-opacity:1"
         d="m 125.21821,150.50569 c -2.03978,-0.0593 -2.20233,-5.78112 -2.20233,-5.78112 0,0 -4.62402,-0.68146 -4.60129,-2.35963 0.0175,-1.28945 3.65744,-1.33714 3.65744,-1.33714 l 6.09573,0.0787 c 0,0 4.07676,0.15123 3.93274,1.37645 -0.23864,2.03016 -4.56197,2.24167 -4.56197,2.24167 0,0 -0.26074,5.84097 -2.32032,5.78107 z"
         id="path1108"
         sodipodi:nodetypes="scsccscs" /><circle
         style="font-variation-settings:'wght' 400;mix-blend-mode:normal;fill:#d15900;fill-opacity:0.50196081;stroke:#ea1010;stroke-width:0.235882;stroke-opacity:1;filter:url(#filter1347)"
         id="path1314"
         cx="105.94782"
         cy="192.9792"
         r="6.9898238" /><circle
         style="font-variation-settings:'wght' 400;fill:#d15900;fill-opacity:0.50196081;stroke:#ea1010;stroke-width:0.235882;stroke-opacity:1;filter:url(#filter1347-2)"
         id="path1314-0"
         cx="144.88188"
         cy="192.9792"
         r="6.9898238" /><circle
         style="font-variation-settings:'wght' 400;fill:#d15900;fill-opacity:0.5;stroke:#ea1010;stroke-width:0.235882;stroke-opacity:1;filter:url(#filter1347-2-6)"
         id="path1314-0-3"
         cx="125.41486"
         cy="192.9792"
         r="6.9898238" /></g><text
       xml:space="preserve"
       style="font-style:normal;font-variant:normal;font-weight:normal;font-stretch:normal;font-size:112.418px;font-family:HandelGothic;-inkscape-font-specification:'HandelGothic, Normal';font-variant-ligatures:normal;font-variant-caps:normal;font-variant-numeric:normal;font-variant-east-asian:normal;display:none;fill:#10aaea;fill-opacity:1;stroke-width:0.342563"
       x="288.31314"
       y="-222.278"
       id="text307-0"
       inkscape:label="text_raw"><tspan
         sodipodi:role="line"
         style="font-style:normal;font-variant:normal;font-weight:normal;font-stretch:normal;font-size:70.5556px;font-family:HandelGothic;-inkscape-font-specification:'HandelGothic, Normal';font-variant-ligatures:normal;font-variant-caps:normal;font-variant-numeric:normal;font-variant-east-asian:normal;fill:#10aaea;fill-opacity:1;stroke-width:0.342563"
         x="0"
         y="0"
         id="tspan650"><tspan
   style="font-style:normal;font-variant:normal;font-weight:normal;font-stretch:normal;font-size:52.9167px;font-family:HandelGothic;-inkscape-font-specification:'HandelGothic, Normal';font-variant-ligatures:normal;font-variant-caps:normal;font-variant-numeric:normal;font-variant-east-asian:normal"
   id="tspan642">R</tspan>a<tspan
   style="font-style:normal;font-variant:normal;font-weight:normal;font-stretch:normal;font-size:52.9167px;font-family:HandelGothic;-inkscape-font-specification:'HandelGothic, Normal';font-variant-ligatures:normal;font-variant-caps:normal;font-variant-numeric:normal;font-variant-east-asian:normal"
   id="tspan644">BB</tspan>it</tspan><tspan
         sodipodi:role="line"
         style="font-style:normal;font-variant:normal;font-weight:normal;font-stretch:normal;font-size:70.5556px;font-family:HandelGothic;-inkscape-font-specification:'HandelGothic, Normal';font-variant-ligatures:normal;font-variant-caps:normal;font-variant-numeric:normal;font-variant-east-asian:normal;fill:#10aaea;fill-opacity:1;stroke-width:0.342563"
         x="0"
         y="0"
         id="tspan504-6"><tspan
           style="font-style:normal;font-variant:normal;font-weight:normal;font-stretch:normal;font-size:52.9167px;font-family:HandelGothic;-inkscape-font-specification:'HandelGothic, Normal';font-variant-ligatures:normal;font-variant-caps:normal;font-variant-numeric:normal;font-variant-east-asian:normal"
           id="tspan646">RFDID</tspan></tspan></text><g
       id="g16"
       inkscape:label="text"><path
         d="m 320.97124,114.78643 v 26.50803 H 301.59152 V 64.371548 h 37.5965 c 5.84322,0 10.57163,0.34598 14.18518,1.037942 3.61358,0.69196 7.41936,2.421859 11.41736,5.189701 3.99798,2.690956 5.99697,7.765332 5.99697,15.223125 0,11.609557 -4.88216,19.105794 -14.64649,22.488704 4.9975,1.69146 8.57263,4.11333 10.7254,7.26559 2.15275,3.07538 3.22913,7.76533 3.22913,14.06986 0,3.15226 0.0769,5.26658 0.23067,6.34297 0.23065,1.07638 0.76885,2.84472 1.61457,5.30502 h -21.00658 c -0.38786,-1.39699 -0.64645,-2.40982 -0.77573,-3.03846 -0.0647,-0.62865 -0.35555,-3.52742 -0.87272,-8.69632 -0.45251,-5.16889 -1.93934,-8.90586 -4.46052,-11.2109 -2.45649,-2.3749 -6.72308,-3.56235 -12.79971,-3.56235 z m 0.22509,-18.281215 h 18.68121 c 3.37951,0 5.82027,-0.657126 7.32227,-1.971381 1.50202,-1.314258 2.25302,-3.504685 2.25302,-6.571283 0,-2.878847 -0.751,-4.912814 -2.25302,-6.101904 -1.43941,-1.251672 -3.88016,-1.877506 -7.32227,-1.877506 h -18.68121 z"
         style="font-size:52.9167px;font-family:HandelGothic;-inkscape-font-specification:'HandelGothic, Normal';fill:#ea7710;stroke-width:0.746582;fill-opacity:1"
         id="path712"
         sodipodi:nodetypes="ccccsscsccsccccccsccssscscc" /><path
         d="m 321.8171,209.4518 v 26.50803 h -19.37971 v -76.92292 h 37.5965 c 5.84321,0 10.57162,0.34598 14.18517,1.03795 3.61358,0.69196 7.41936,2.42186 11.41736,5.1897 3.99798,2.69095 5.99697,7.76533 5.99697,15.22312 0,11.60956 -4.88216,19.10579 -14.64649,22.48871 4.9975,1.69146 8.57263,4.11332 10.7254,7.26558 2.15275,3.07538 3.22913,7.76533 3.22913,14.06986 0,3.15226 0.0769,5.26659 0.23067,6.34297 0.23065,1.07638 0.76885,2.84473 1.61457,5.30503 H 351.7801 c -0.38787,-1.397 -0.64646,-2.40982 -0.77574,-3.03847 -0.0647,-0.62865 -0.35555,-3.52742 -0.87272,-8.69631 -0.45251,-5.16889 -1.93934,-8.90586 -4.46051,-11.21091 -2.45649,-2.37489 -6.72309,-3.56234 -12.79971,-3.56234 z m 0.22509,-18.28122 h 18.68122 c 3.37951,0 5.82026,-0.65712 7.32226,-1.97138 1.50202,-1.31426 2.25302,-3.50468 2.25302,-6.57128 0,-2.87885 -0.751,-4.91282 -2.25302,-6.10191 -1.43941,-1.25167 -3.88016,-1.8775 -7.32226,-1.8775 h -18.68122 z"
         style="font-size:52.9167px;font-family:HandelGothic;-inkscape-font-specification:'HandelGothic, Normal';fill:#ea7710;stroke-width:0.746582;fill-opacity:1"
         id="path712-0"
         sodipodi:nodetypes="ccccsscsccsccccccsccssscscc" /><path
         d="m 440.96891,94.502045 v -1.262011 q 0,-7.098808 -3.38291,-9.780579 -3.38291,-2.681775 -12.30152,-2.681775 H 390.53269 V 64.371548 h 34.75179 q 13.99298,0 19.52865,1.577513 5.53568,1.577512 9.53369,6.4678 4.15175,4.890291 5.68945,10.569339 1.53768,5.521295 1.53768,14.986373 V 141.19643 H 418.2111 q -12.60905,0 -16.76081,-0.63101 -3.99798,-0.631 -10.14875,-5.20579 -6.15075,-4.57479 -6.15075,-17.03714 0,-8.04532 3.69044,-14.03987 3.69047,-5.994546 9.53368,-7.887561 5.84322,-1.893014 17.37589,-1.893014 z m 0,16.406135 h -23.83419 -3.38291 q -7.68845,0 -7.68845,7.09881 0,3.62827 2.46031,5.20579 2.61406,1.57751 8.61105,1.57751 h 23.83419 z"
         style="font-size:70.5556px;font-family:HandelGothic;-inkscape-font-specification:'HandelGothic, Normal';fill:#ea7710;stroke-width:0.756187;fill-opacity:1"
         id="path714" /><path
         d="M 474.78393,141.29446 V 64.371548 h 43.47818 c 7.07338,0 12.14774,0.845729 15.22312,2.537189 3.07537,1.691457 5.45881,4.151761 7.15026,7.380908 1.76835,3.152264 2.65251,6.612065 2.65251,10.379404 0,3.921109 -1.03794,7.611563 -3.11382,11.071364 -2.07588,3.382917 -4.76683,5.766337 -8.07287,7.150257 7.4578,3.4598 11.18669,9.57212 11.18669,18.33695 0,4.4593 -0.96105,8.30352 -2.88315,11.53267 -1.92212,3.15226 -4.57463,5.38191 -7.95756,6.68895 -3.30602,1.23015 -8.34194,1.84522 -15.10778,1.84522 z M 495.088,93.907384 h 17.11882 c 1.77397,0 3.07487,-0.0887 3.90272,-0.266096 0.82787,-0.177403 1.89224,-0.76872 3.19315,-1.773971 1.30091,-1.005249 1.95137,-2.749655 1.95137,-5.233213 0,-4.316661 -2.92705,-6.474992 -8.78116,-6.474992 H 495.088 Z m -0.0222,31.618176 h 17.16529 c 1.83808,0 3.17216,-0.0889 4.00225,-0.26681 0.83011,-0.17789 1.89738,-0.77081 3.20182,-1.77879 1.30444,-1.00798 1.95667,-2.75712 1.95667,-5.24742 0,-4.32838 -2.96464,-6.49257 -8.89394,-6.49257 H 495.0658 Z"
         style="font-size:52.9167px;font-family:HandelGothic;-inkscape-font-specification:'HandelGothic, Normal';fill:#ea7710;stroke-width:0.746582;fill-opacity:1"
         id="path716"
         sodipodi:nodetypes="ccsscsccsccsccssssscccssssscc" /><path
         d="M 556.498,141.29446 V 64.371548 h 43.47818 c 7.07338,0 12.14775,0.845729 15.22312,2.537189 3.07538,1.691457 5.45881,4.151761 7.15027,7.380908 1.76834,3.152264 2.6525,6.612065 2.6525,10.379404 0,3.921109 -1.03794,7.611563 -3.11382,11.071364 -2.07588,3.382917 -4.76683,5.766337 -8.07287,7.150257 7.4578,3.4598 11.18669,9.57212 11.18669,18.33695 0,4.4593 -0.96105,8.30352 -2.88315,11.53267 -1.92212,3.15226 -4.57463,5.38191 -7.95756,6.68895 -3.30604,1.23015 -8.34196,1.84522 -15.10778,1.84522 z m 19.96914,-47.211104 h 17.55706 c 1.81938,0 3.15359,-0.09097 4.00262,-0.272907 0.84905,-0.181937 1.94069,-0.788398 3.2749,-1.819384 1.33421,-1.030983 2.00132,-2.820042 2.00132,-5.36718 0,-4.427164 -3.00197,-6.640744 -9.00594,-6.640744 h -17.82996 z m 0.17043,31.516614 h 17.35058 c 1.85792,0 3.2064,-0.0899 4.04547,-0.2697 0.83905,-0.1798 1.91785,-0.77913 3.23637,-1.79799 1.31853,-1.01886 1.97778,-2.78688 1.97778,-5.30406 0,-4.3751 -2.99663,-6.56265 -8.98992,-6.56265 h -17.62028 z"
         style="font-size:52.9167px;font-family:HandelGothic;-inkscape-font-specification:'HandelGothic, Normal';fill:#ea7710;stroke-width:0.746582;fill-opacity:1"
         id="path718"
         sodipodi:nodetypes="ccsscsccsccsccssssscccssssscc" /><path
         d="m 655.76109,64.371548 h 14.4579 17.54902 V 80.43089 h -15.84466 v 45.7639 h 15.84466 v 14.99731 h -15.84466 -17.79687 -15.91442 v -14.99731 h 15.91442 V 80.43089 H 638.21206 V 64.371548 Z"
         style="font-size:70.5556px;font-family:HandelGothic;-inkscape-font-specification:'HandelGothic, Normal';fill:#ea7710;stroke-width:0.717093;fill-opacity:1"
         id="path720"
         sodipodi:nodetypes="ccccccccccccccccc" /><path
         d="m 733.72082,64.371548 h 33.98292 V 80.77768 h -22.62205 v 27.92198 c 0,6.62555 0.66633,10.99001 1.99899,13.09336 1.43518,1.99818 4.40804,2.99727 8.91859,2.99727 h 11.70447 v 16.40614 h -18.47029 c -9.12363,0 -15.53067,-2.15594 -19.22112,-6.4678 -3.69044,-4.31187 -5.53568,-11.77877 -5.53568,-22.40069 V 80.77768 H 702.12564 V 64.371548 Z"
         style="font-size:70.5556px;font-family:HandelGothic;-inkscape-font-specification:'HandelGothic, Normal';fill:#ea7710;stroke-width:0.756189;fill-opacity:1"
         id="path722"
         sodipodi:nodetypes="ccccscsccssscccc" /><path
         d="m 461.75759,190.53503 v 18.57274 h -57.06473 v 26.77525 H 384.2818 v -40.05355 c 0,-9.59137 1.19782,-16.76571 3.59349,-21.52303 1.34029,-3.32122 5.08723,-8.07083 9.86885,-10.68286 4.88716,-2.14846 10.25473,-3.16708 13.99197,-3.70419 3.83306,-0.53712 9.48683,-0.80568 16.96131,-0.80568 h 33.06017 v 18.57274 h -30.47286 c -10.06179,0 -18.94937,-0.33957 -22.48407,1.46432 -3.53469,1.80388 -4.1078,4.08646 -4.1078,7.24079 v 4.14347 z"
         id="text9"
         style="font-size:127.114px;font-family:HandelGothic;-inkscape-font-specification:'HandelGothic, Normal';fill:#ea7710;stroke-width:0.832655;fill-opacity:1"
         aria-label="F"
         inkscape:label="path723"
         sodipodi:nodetypes="cccccscccsccszscc" /><path
         d="m 500.1844,159.08809 h 16.18218 25.99196 v 17.64684 h -24.08433 v 42.5889 h 24.08433 v 16.58481 h -24.08433 -19.91936 -23.63324 v -16.58481 h 23.63324 v -42.5889 h -23.63324 v -17.64684 z"
         style="font-size:70.5556px;font-family:HandelGothic;-inkscape-font-specification:'HandelGothic, Normal';fill:#ea7710;stroke-width:0.75865;fill-opacity:1"
         id="path720-9"
         sodipodi:nodetypes="ccccccccccccccccc" /><path
         style="fill:#000000;fill-opacity:0;stroke:#ea7710;stroke-width:7.14957;stroke-dasharray:none;stroke-opacity:1"
         d="m 735.59329,199.11688 v -5.75696 h 3.0069 v 8.08808 h -5.88161 v -8.08808 h 5.88161 v 3.86531 l 8.46117,-0.15091 v -13.66983 h -23.18017 v 28.31845 h 23.65911 l 8.51139,-8.3911 v -29.88278 h -41.53706 v 48.54882 h 37.61685 l 12.91056,-12.93353 v -45.57072 h -59.89397 v 68.77918 h 59.89397 v -8.23155 l -8.37473,9.13702"
         id="path16-0"
         sodipodi:nodetypes="ccccccccccccccccccccccccc" /><path
         style="font-size:112.418px;font-family:HandelGothic;-inkscape-font-specification:'HandelGothic, Normal';font-variation-settings:'wght' 400;fill:#ea7710;fill-opacity:1;stroke-width:0.109313"
         d="m 649.03315,191.90196 c 0,0 0.78727,-14.4877 1.65665,-24.00377 0.18154,-1.98611 0.41929,-4.61138 0.7755,-5.66863 0.3562,-1.05724 1.18518,-2.2611 1.82603,-2.77777 0.34604,-0.27897 0.91197,-0.36093 1.49101,-0.0963 0.57905,0.26471 1.45591,1.6238 1.94229,2.76091 0.78007,1.82381 0.76451,3.80307 0.90488,5.78175 0.48422,6.82641 -0.0662,15.70745 -0.0662,15.70745 0,0 2.44442,-1.21624 6.28731,-1.26148 3.77108,-0.0445 6.27761,1.37145 6.27761,1.37145 0,0 -0.004,-10.62724 0.5797,-17.76857 0.11137,-1.35969 0.20835,-2.83994 0.76349,-4.08609 0.42193,-0.94713 0.97751,-1.90574 1.8946,-2.38946 0.38386,-0.20246 1.04859,-0.17021 1.39974,0.0848 0.72336,0.52546 1.32684,1.49793 1.73905,2.67223 0.24939,0.71044 0.47716,2.38405 0.5797,3.52054 0.92934,10.3005 1.47042,26.37908 1.47042,26.37908 0,0 1.03968,2.56223 1.35733,3.9023 1.26739,5.34688 1.29917,9.87535 2.22907,15.29112 1.15127,6.70508 3.27625,13.11864 4.16166,19.86395 0.14253,1.08554 0.22044,2.3533 0.0497,3.44014 -0.0538,0.34304 -0.73376,1.07029 -1.34077,1.3836 -11.79193,0.0131 -30.43294,0.42361 -42.80187,-0.13295 -0.70924,-0.42764 -1.38396,-1.02554 -1.66007,-1.80633 -0.30252,-0.85543 0.0503,-2.20904 0.22278,-3.34987 1.10587,-7.31272 3.39659,-14.13289 4.7672,-21.40065 0.90865,-4.81828 1.6012,-9.48314 2.36216,-13.7413 0.22555,-1.26204 1.13111,-3.67608 1.13111,-3.67608 z"
         id="path403-2"
         sodipodi:nodetypes="cszszsscscsssssscssssccsssscc" /><path
         d="m 556.74814,159.13742 h 32.55215 c 8.05177,0 14.4165,0.80519 19.0942,2.41553 4.75439,1.61035 8.47354,4.06423 11.15745,7.36162 2.68394,3.2974 4.71606,7.47666 6.09636,12.53777 1.3803,5.06111 2.07045,10.39061 2.07045,15.98851 0,7.59167 -0.95855,14.18645 -2.87564,19.78434 -1.91709,5.59791 -4.52432,9.70048 -7.8217,12.30773 -3.2974,2.53055 -6.82485,4.21758 -10.58234,5.06109 -3.75749,0.84353 -9.47042,1.2653 -17.13878,1.2653 h -32.55215 z m 19.50859,16.86303 v 42.99584 h 13.04356 c 7.36161,0 11.05766,-1.34197 13.20481,-4.0259 2.22383,-2.68391 3.79585,-5.82794 4.71605,-9.43207 0.99687,-3.60412 1.12218,-4.18866 1.12218,-8.25289 0,-4.60102 -0.27868,-5.64156 -1.58229,-9.32237 -1.22694,-3.7575 -3.10569,-6.67148 -5.63625,-8.74193 -2.53055,-2.14713 -5.7665,-3.22069 -11.8245,-3.22069 z"
         id="text8"
         style="font-size:52.9167px;font-family:HandelGothic;-inkscape-font-specification:'HandelGothic, Normal';fill:#ea7710;stroke-width:0.744631;fill-opacity:1"
         aria-label="D"
         sodipodi:nodetypes="cscsssscssccccsccsccsc" /></g></g><metadata
     id="metadata336"><rdf:RDF><cc:Work
         rdf:about=""><cc:license
           rdf:resource="http://creativecommons.org/licenses/by-nc-sa/4.0/" /><dc:title>Rabbit RFID Logo</dc:title><dc:date>2024-12-15</dc:date><dc:creator><cc:Agent><dc:title>https://github.com/ORelio/</dc:title></cc:Agent></dc:creator><dc:rights><cc:Agent><dc:title>CC BY-NC-SA v4.0</dc:title></cc:Agent></dc:rights></cc:Work><cc:License
         rdf:about="http://creativecommons.org/licenses/by-nc-sa/4.0/"><cc:permits
           rdf:resource="http://creativecommons.org/ns#Reproduction" /><cc:permits
           rdf:resource="http://creativecommons.org/ns#Distribution" /><cc:requires
           rdf:resource="http://creativecommons.org/ns#Notice" /><cc:requires
           rdf:resource="http://creativecommons.org/ns#Attribution" /><cc:prohibits
           rdf:resource="http://creativecommons.org/ns#CommercialUse" /><cc:permits
           rdf:resource="http://creativecommons.org/ns#DerivativeWorks" /><cc:requires
           rdf:resource="http://creativecommons.org/ns#ShareAlike" /></cc:License></rdf:RDF></metadata></svg>
